<svg id="Icons" height="512" viewBox="0 0 74 74" width="512" xmlns="http://www.w3.org/2000/svg"><path d="m42.5 67.76h-2.94a1 1 0 0 1 0-2h2.94a1 1 0 0 1 0 2z"/><path d="m64.62 67.76h-5.18a1 1 0 0 1 0-2h5.18a5.629 5.629 0 0 0 5.531-4.62h-65.822a5.629 5.629 0 0 0 5.531 4.62h22.7a1 1 0 0 1 0 2h-22.7a7.628 7.628 0 0 1 -7.62-7.62 1 1 0 0 1 1-1h68a1 1 0 0 1 1 1 7.628 7.628 0 0 1 -7.62 7.62z"/><path d="m52.44 67.76h-2.94a1 1 0 0 1 0-2h2.94a1 1 0 0 1 0 2z"/><path d="m65.377 61.14h-56.277a1 1 0 0 1 -1-1 29.04 29.04 0 0 1 29.007-29.007h.264a29.04 29.04 0 0 1 29.006 29.007 1 1 0 0 1 -1 1zm-55.259-2h54.241a27.038 27.038 0 0 0 -26.988-26.007h-.264a27.039 27.039 0 0 0 -26.989 26.007z"/><path d="m33.85 33.326a1 1 0 0 1 -.95-.687l-1.609-4.88a1 1 0 0 1 .557-1.234 13.282 13.282 0 0 1 10.784 0 1 1 0 0 1 .558 1.234l-1.61 4.88a1 1 0 0 1 -1.9-.627l1.313-3.978a10.989 10.989 0 0 0 -7.506 0l1.313 3.978a1 1 0 0 1 -.636 1.263.983.983 0 0 1 -.314.051z"/><path d="m51.486 28a1 1 0 0 1 -.669-1.743 2.772 2.772 0 0 0 1.226-2.218c0-1.089-.529-1.609-1.465-2.436a4.956 4.956 0 0 1 -2.141-3.934 4.976 4.976 0 0 1 2.139-3.943 6.8 6.8 0 0 0 1.033-1.052 1 1 0 1 1 1.627 1.164 8.415 8.415 0 0 1 -1.336 1.385c-.936.83-1.466 1.353-1.466 2.447s.529 1.609 1.465 2.435a4.96 4.96 0 0 1 2.141 3.935 4.7 4.7 0 0 1 -1.889 3.705.994.994 0 0 1 -.665.255z"/><path d="m23.483 28a1 1 0 0 1 -.669-1.743 2.77 2.77 0 0 0 1.226-2.217c0-1.089-.529-1.609-1.465-2.436a4.956 4.956 0 0 1 -2.141-3.934 4.976 4.976 0 0 1 2.139-3.943 6.8 6.8 0 0 0 1.033-1.052 1 1 0 1 1 1.627 1.164 8.415 8.415 0 0 1 -1.333 1.384c-.936.83-1.466 1.353-1.466 2.447s.529 1.609 1.465 2.435a4.96 4.96 0 0 1 2.141 3.935 4.7 4.7 0 0 1 -1.889 3.705.994.994 0 0 1 -.668.255z"/><path d="m37.485 22a1 1 0 0 1 -.669-1.743 2.772 2.772 0 0 0 1.226-2.218c0-1.089-.53-1.609-1.465-2.436a4.956 4.956 0 0 1 -2.141-3.934 4.978 4.978 0 0 1 2.138-3.943 6.8 6.8 0 0 0 1.033-1.052 1 1 0 1 1 1.627 1.164 8.334 8.334 0 0 1 -1.334 1.385c-.936.83-1.465 1.353-1.465 2.447s.529 1.609 1.464 2.435a4.96 4.96 0 0 1 2.142 3.935 4.7 4.7 0 0 1 -1.889 3.705.994.994 0 0 1 -.667.255z"/></svg>