<svg id="Layer_1" enable-background="new 0 0 482 482" height="512" viewBox="0 0 482 482" width="512" xmlns="http://www.w3.org/2000/svg"><path d="m481.8 198.889v204.882c0 29.214-23.767 52.981-52.98 52.981h-375.839c-29.214 0-52.981-23.768-52.981-52.981v-263.887c0-29.214 23.767-52.981 52.981-52.981h233.019c4.971 0 9 4.029 9 9s-4.029 9-9 9h-233.019c-19.289 0-34.981 15.693-34.981 34.981v26.83l205.871 99.978c10.824 5.255 23.24 5.258 34.063.005l100.597-48.815c4.474-2.168 9.856-.304 12.025 4.168 2.17 4.472.305 9.856-4.168 12.026l-100.596 48.815c-15.814 7.675-33.959 7.677-49.784-.008l-198.008-96.159v217.047c0 19.289 15.692 34.981 34.981 34.981h375.838c19.288 0 34.98-15.692 34.98-34.981v-204.882c0-4.971 4.029-9 9-9s9.001 4.029 9.001 9zm-341.223 104.558-87.712 87.712c-5.687 5.687-1.581 15.364 6.364 15.364 2.303 0 4.606-.879 6.364-2.636l87.712-87.712c3.515-3.515 3.515-9.213 0-12.728-3.515-3.514-9.214-3.514-12.728 0zm187.918 0c-3.515 3.515-3.515 9.213 0 12.728l87.712 87.712c1.758 1.757 4.061 2.636 6.364 2.636 7.946 0 12.051-9.677 6.364-15.364l-87.712-87.712c-3.515-3.514-9.212-3.514-12.728 0zm153.505-198.262v13.855c0 27.122-35.006 38.448-50.832 16.177-26.507 25.63-71.168 6.868-71.168-30.176 0-23.159 18.841-42 42-42s42 18.841 42 42v14c0 5.514 4.486 10 10 10s10-4.486 10-10c0-15.898 2.046-37.906-18.639-58.109-38.165-37.276-103.772-11.717-105.055 42.757-.819 34.832 27.094 63.352 61.838 63.352 4.971 0 9 4.029 9 9s-4.029 9-9 9c-44.89 0-80.891-36.857-79.832-81.776 1.611-68.473 85.245-104.42 135.626-55.21 15.517 15.155 24.062 35.444 24.062 57.13zm-56-.144c0-13.234-10.767-24-24-24s-24 10.766-24 24 10.767 24 24 24 24-10.766 24-24z"/></svg>