<svg id="Capa_1" enable-background="new 0 0 512 512" height="512" viewBox="0 0 512 512" width="512" xmlns="http://www.w3.org/2000/svg"><g><path d="m288.635 247.93c.09.03.18.05.28.07 1.08.22 2.16.33 3.22.33 3.08 0 5.99-.94 8.41-2.75 3.17-2.37 5.11-5.99 5.46-10.17.01-.14.02-.28.03-.42l.36-13.01.74-18.79 10.88-15.87 7.46-11c.06-.09.12-.18.17-.27 2.22-3.58 2.78-7.78 1.55-11.54-1.27-3.86-4.23-6.91-8.35-8.57-.11-.04-.22-.08-.33-.12l-31.43-11.02-20.87-24.99c-.06-.06-.11-.13-.17-.19-2.47-2.75-5.77-4.47-9.29-4.83-.51-.06-1.03-.06-1.54 0-3.52.36-6.82 2.08-9.29 4.83-.06.06-.12.13-.17.19l-20.87 24.99-31.44 11.02c-.11.04-.21.08-.32.12-4.12 1.66-7.09 4.71-8.35 8.57-1.23 3.76-.67 7.96 1.54 11.54.06.09.12.18.18.27l8.34 12.28c0 .01.01.01.02.02l9.98 14.57.73 18.71.37 13.09c0 .14.01.28.02.42.35 4.18 2.29 7.8 5.46 10.17 3.25 2.43 7.39 3.29 11.64 2.42.09-.02.19-.04.28-.07l32.65-8zm-31.51-118.34h.01c-.01 0-.01 0-.01.01zm-36.24 103.5-.33-11.7-.82-20.95c-.05-1.41-.51-2.77-1.31-3.94l-11.19-16.35-7.29-10.71 31.86-11.17c1.27-.45 2.41-1.24 3.27-2.28l20.91-25.03 20.9 25.03c.87 1.04 2 1.83 3.28 2.28l31.85 11.17-6.39 9.43-12.09 17.63c-.8 1.16-1.25 2.53-1.3 3.94l-.83 21.04-.33 11.61-33.31-8.17c-.58-.15-1.18-.22-1.78-.22s-1.2.07-1.79.22z"/><path d="m439.905 162.34c-3.3-32.82-14.42-63.5-32.16-88.75-33.34-47.45-87.24-73.59-151.76-73.59-34.93 0-66.6 7.54-94.14 22.4-26.23 14.16-47.49 34.23-63.21 59.65-2.18 3.52-1.09 8.14 2.44 10.32 3.52 2.18 8.14 1.09 10.32-2.43 29.87-48.33 81.22-74.94 144.59-74.94 59.49 0 109.03 23.87 139.49 67.22 34 48.39 40.01 113.6 16.47 178.91-18.59 51.69-68.74 106.44-112.98 154.75-2.63 2.87-26.24 28.93-28.59 31.6-3.47 3.95-11.61 13.2-14.4 13.2s-40.42-42-43.08-44.91c-44.2-48.27-94.3-102.98-112.91-154.64-17.41-48.38-18.56-98.38-3.23-140.78 1.4-3.9-.61-8.2-4.51-9.61-3.89-1.4-8.19.61-9.6 4.51-16.51 45.68-15.36 99.29 3.23 150.96 19.43 53.93 69.76 109.24 114.57 158.17h-56.62c-2.76 0-9.48 1.02-12.43 10.53l-18.91 62.13c-1.01 3.26-.39 6.77 1.71 9.61 2.43 3.3 6.53 5.35 10.71 5.35h70.26c4.14 0 7.5-3.36 7.5-7.5s-3.36-7.5-7.5-7.5h-66.98l17.53-57.62h68.43c5.64 6.19 11.04 12.19 16.15 18 9.74 11.06 16.78 18.3 25.68 18.3h.01c8.91 0 15.94-7.25 25.66-18.3 5.12-5.82 10.52-11.81 16.16-18h69.04l17.54 57.62h-154.56c-4.14 0-7.5 3.36-7.5 7.5s3.36 7.5 7.5 7.5h157.84c4.17 0 8.27-2.05 10.7-5.34 2.1-2.85 2.72-6.35 1.72-9.59l-18.93-62.19c-2.93-9.48-9.66-10.5-12.41-10.5h-57.23c44.83-48.95 95.15-104.24 114.55-158.17 12.42-34.49 17.21-70.41 13.84-103.87z"/><path d="m384.605 181.55c0-70.9-57.7-128.57-128.62-128.57-70.94 0-128.66 57.67-128.66 128.57 0 70.87 57.72 128.54 128.66 128.54 70.92 0 128.62-57.67 128.62-128.54zm-242.28 0c0-62.62 50.99-113.57 113.66-113.57 62.65 0 113.62 50.95 113.62 113.57 0 62.6-50.97 113.54-113.62 113.54-62.67 0-113.66-50.94-113.66-113.54z"/></g></svg>