<?xml version="1.0" encoding="iso-8859-1"?>
<!-- Generator: Adobe Illustrator 19.0.0, SVG Export Plug-In . SVG Version: 6.00 Build 0)  -->
<svg version="1.1" id="Capa_1" xmlns="http://www.w3.org/2000/svg" xmlns:xlink="http://www.w3.org/1999/xlink" x="0px" y="0px"
	 viewBox="0 0 512.001 512.001" style="enable-background:new 0 0 512.001 512.001;fill: rgb(51, 143, 8);" xml:space="preserve">
<g>
	<g>
		<g>
			<path d="M456.01,311.784c-2.592-3.23-7.311-3.751-10.543-1.16l-65.226,52.299c-3.232,2.592-3.751,7.312-1.16,10.543
				c1.482,1.848,3.659,2.809,5.856,2.809c1.646,0,3.303-0.539,4.687-1.648l65.226-52.299
				C458.082,319.737,458.601,315.016,456.01,311.784z"/>
			<path d="M231.06,129.468c0.615,3.665,3.791,6.26,7.388,6.26c0.412,0,0.83-0.034,1.25-0.104c4.085-0.686,6.841-4.553,6.155-8.638
				l-3.803-22.661c-0.686-4.085-4.556-6.841-8.638-6.155c-4.085,0.686-6.841,4.553-6.155,8.638L231.06,129.468z"/>
			<path d="M500.017,291.957l-7.723-11.029c-5.826-8.32-14.942-13.86-25.011-15.198c-10.069-1.338-20.316,1.628-28.113,8.139
				l-94.845,79.192c-2.733,2.282-5.188,4.837-7.348,7.629c-13.714-3.321-28.461-1.844-41.663,4.851
				c-18.115,9.188-37.868,12.367-57.128,9.203c-18.247-3.001-35.033-11.754-47.269-24.649c-3.198-3.371-7.212-5.656-11.615-6.684
				c0.613-4.309-0.189-8.822-2.521-12.79c-22.058-37.534-18.656-81.545,8.877-114.859c2.713-3.283,4.179-7.179,4.459-11.127
				c4.036-0.283,8.026-1.592,11.555-3.971c17.33-11.682,41.358-14.537,62.707-7.448c9.588,3.183,19.385,4.733,29.057,4.733
				c23.349-0.002,45.942-9.046,62.904-26.009l7.008-7.008c22.492-22.492,31.209-54.315,23.319-85.128
				c-7.895-30.833-30.851-54.567-61.409-63.487c-37.845-11.049-77.177-12.32-116.901-3.779
				c-18.099,3.891-36.013,9.869-53.293,17.697c-0.373,0.129-0.742,0.28-1.101,0.473c-0.033,0.018-0.063,0.039-0.095,0.058
				c-17.631,8.087-34.583,18.116-50.369,29.86c-9.92,7.381-16.127,18.704-17.029,31.064c-0.231,3.162-0.105,6.308,0.35,9.386
				c-3.467-0.672-7.048-0.872-10.651-0.558c-11.384,0.988-21.689,6.932-28.27,16.307C20.217,156.255,3.368,203.722,0.458,250.485
				c-1.722,27.676,1.413,54.941,9.319,81.035c4.132,13.636,9.598,26.981,16.324,39.962c0.144,0.334,0.31,0.661,0.506,0.978
				c7.481,14.285,16.497,28.125,27.017,41.405c6.827,8.618,17.036,13.926,28.007,14.561c0.741,0.043,1.479,0.064,2.217,0.064
				c2.778,0,5.527-0.312,8.206-0.897c-0.371,3.008-0.424,6.078-0.133,9.162c1.182,12.554,7.837,23.823,18.26,30.918
				c33.974,23.127,74.003,36.014,115.758,37.268c2.29,0.068,4.579,0.102,6.874,0.102c24.065-0.001,48.381-3.794,71.952-11.11
				c0.004-0.001,0.007-0.001,0.011-0.002c0.371-0.083,0.724-0.201,1.068-0.335c12.143-3.829,24.089-8.577,35.687-14.262
				c3.72-1.822,5.257-6.315,3.435-10.035c-1.823-3.72-6.317-5.257-10.035-3.434c-8.592,4.21-17.382,7.887-26.303,11.018
				l-2.566-11.405c-0.909-4.042-4.92-6.577-8.963-5.671c-4.041,0.91-6.58,4.923-5.67,8.964l2.843,12.636
				c-22.342,6.286-45.286,9.207-67.881,8.54c-38.894-1.168-76.16-13.157-107.768-34.675c-6.716-4.571-11.004-11.833-11.766-19.923
				c-0.761-8.086,2.094-16.017,7.835-21.757l53.36-53.361c0.001-0.001,0.003-0.003,0.005-0.004c1.6-1.6,3.742-2.463,5.987-2.435
				c2.284,0.029,4.413,0.964,5.993,2.629c14.474,15.255,34.261,25.599,55.716,29.126c22.425,3.686,45.368,0.013,66.347-10.627
				c11.084-5.62,23.625-6.344,34.926-2.617c0.384,0.171,0.777,0.307,1.174,0.409c6.28,2.261,12.143,5.909,17.114,10.879
				c11.353,11.352,15.694,27.079,12.645,41.848c-0.247,0.641-0.408,1.323-0.47,2.036c-1.447,5.687-3.999,11.195-7.7,16.21
				c-2.46,3.333-1.752,8.028,1.581,10.488c1.34,0.989,2.9,1.467,4.448,1.467c2.3,0,4.57-1.055,6.04-3.047
				c3.881-5.258,6.856-11.089,8.875-17.238c6.88-0.706,13.559-2.839,19.58-6.335l78.679-45.682
				c16.01-9.295,27.477-24.995,31.461-43.073C514.439,326.186,510.635,307.12,500.017,291.957z M163.168,343.898l-62.713,62.713
				c-4.73,4.73-11.283,7.225-17.958,6.836c-6.704-0.387-12.941-3.631-17.115-8.898c-8.707-10.991-16.281-22.289-22.741-33.864
				l11.974-8.921c3.322-2.476,4.008-7.174,1.533-10.495c-2.475-3.323-7.175-4.008-10.495-1.534l-9.981,7.436
				c-15.75-33.215-22.553-68.609-20.242-105.756c1.864-29.957,9.379-56.245,18.311-77.716l12.447,6.601
				c1.12,0.594,2.322,0.876,3.507,0.876c2.687,0,5.286-1.449,6.632-3.988c1.94-3.659,0.547-8.199-3.112-10.14l-13.299-7.053
				c7.101-14.614,14.472-26.308,20.26-34.553c4.029-5.738,10.332-9.377,17.292-9.981c6.908-0.59,13.674,1.869,18.576,6.771
				l6.756,6.756c2.929,2.928,7.678,2.928,10.606,0c2.929-2.93,2.929-7.678,0-10.607l-3.902-3.902
				c-5.719-5.718-8.661-13.627-8.072-21.697c0.584-8.01,4.602-15.344,11.022-20.121c13.195-9.818,27.247-18.361,41.832-25.493
				l13.067,24.348c1.353,2.521,3.941,3.955,6.615,3.955c1.197,0,2.412-0.288,3.54-0.894c3.649-1.959,5.021-6.505,3.062-10.155
				l-12.589-23.456c14.207-5.955,28.805-10.596,43.529-13.763c37.262-8.01,74.119-6.828,109.545,3.513
				c25.418,7.421,44.515,27.163,51.082,52.81c6.562,25.627-0.688,52.094-19.395,70.8l-7.008,7.008
				c-19.952,19.951-49.315,26.714-76.629,17.646c-26.056-8.65-54.398-5.193-75.819,9.247c-3.471,2.341-8.181,1.854-11.195-1.16
				l-44.456-44.456c-2.929-2.928-7.678-2.928-10.606,0c-2.929,2.93-2.929,7.678,0,10.607l44.452,44.451
				c0.001,0.002,0.003,0.003,0.004,0.005c0.002,0.001,0.003,0.003,0.005,0.004l2.308,2.308c1.697,1.697,1.825,4.371,0.297,6.22
				c-15.103,18.274-24.187,40.023-26.269,62.898c-2.158,23.71,3.381,47.61,16.022,69.118
				C164.939,340.074,164.659,342.408,163.168,343.898z M495.806,341.034c-3.128,14.193-11.774,26.03-24.344,33.328l-78.68,45.682
				c-2.845,1.652-5.903,2.865-9.07,3.632c0.14-2.41,0.151-4.834,0.006-7.263c-0.89-14.843-7.21-28.846-17.796-39.431
				c-4.246-4.246-8.988-7.759-14.052-10.526c0.663-0.653,1.353-1.283,2.072-1.883l94.844-79.191
				c4.65-3.883,10.519-5.581,16.523-4.783c6.004,0.798,11.225,3.97,14.699,8.932l7.723,11.029
				C496.066,312.466,498.934,326.84,495.806,341.034z"/>
			<path d="M466.994,339.669l-71.454,43.406c-3.54,2.15-4.666,6.764-2.516,10.304c1.412,2.324,3.884,3.607,6.417,3.607
				c1.326,0,2.67-0.351,3.887-1.091l71.454-43.406c3.54-2.15,4.667-6.764,2.516-10.304
				C475.147,338.646,470.536,337.518,466.994,339.669z"/>
			<path d="M171.775,414.008l-8.495,23.259c-1.421,3.891,0.581,8.197,4.472,9.618c0.849,0.31,1.718,0.457,2.573,0.457
				c3.06,0,5.934-1.888,7.045-4.929l8.495-23.259c1.421-3.891-0.581-8.197-4.472-9.618
				C177.504,408.117,173.196,410.118,171.775,414.008z"/>
		</g>
	</g>
</g>
<g>
</g>
<g>
</g>
<g>
</g>
<g>
</g>
<g>
</g>
<g>
</g>
<g>
</g>
<g>
</g>
<g>
</g>
<g>
</g>
<g>
</g>
<g>
</g>
<g>
</g>
<g>
</g>
<g>
</g>
</svg>
