<?xml version="1.0" encoding="iso-8859-1"?>
<!-- Generator: Adobe Illustrator 19.0.0, SVG Export Plug-In . SVG Version: 6.00 Build 0)  -->
<svg  version="1.1" id="Capa_1" xmlns="http://www.w3.org/2000/svg" xmlns:xlink="http://www.w3.org/1999/xlink" x="0px" y="0px"
	 viewBox="0 0 512 512" style="enable-background:new 0 0 512 512;fill:#a07c37" xml:space="preserve">
<g>
	<g>
		<path d="M507.605,4.394c-5.854-5.859-15.352-5.859-21.209,0l-33.162,33.162c-23-13.556-53.171-10.468-72.904,9.264
			c-7.725,7.725-12.882,17.053-15.505,26.921l-5.708-5.708c-5.858-5.858-15.355-5.858-21.213,0l-42.427,42.426
			c-5.855,5.855-5.857,15.356,0,21.213l5.708,5.708c-9.868,2.623-19.196,7.78-26.921,15.505
			c-7.679,7.679-13.011,17.076-15.657,27.321c-23.535-18.772-58.023-17.28-79.802,4.499c-21.751,21.751-22.847,55.147-5.857,78.064
			l-41.313,13.771c-5.838,1.946-9.895,7.26-10.234,13.404c-0.024,0.426-0.148,2.997-0.023,7.04l-16.82-16.82
			c-5.857-5.858-15.355-5.858-21.213,0c-37.611,37.611-40.564,96.249-9.856,137.135L4.396,486.394
			c-5.858,5.858-5.858,15.355,0,21.213C7.324,510.536,11.163,512,15.002,512s7.678-1.464,10.606-4.394l69.094-69.093
			c40.86,30.689,99.498,27.782,137.135-9.855c5.858-5.858,5.858-15.355,0-21.213l-16.822-16.821
			c2.102,0.064,4.978,0.094,7.041-0.021c6.144-0.339,11.458-4.396,13.404-10.234l13.771-41.313
			c22.943,17.008,56.335,15.873,78.065-5.857c21.779-21.779,23.271-56.268,4.498-79.802c10.245-2.646,19.642-7.978,27.321-15.657
			c7.725-7.725,12.882-17.053,15.505-26.921l5.708,5.708c5.855,5.855,15.356,5.857,21.213,0l42.426-42.427
			c5.858-5.858,5.858-15.355,0-21.213l-5.708-5.708c9.868-2.624,19.196-7.781,26.921-15.506
			c19.732-19.733,22.82-49.903,9.263-72.904l33.162-33.162C513.463,19.749,513.463,10.252,507.605,4.394z M104.558,407.445
			c-25.862-25.862-28.711-65.552-9.552-94.405l103.958,103.958C170.149,436.13,130.452,433.339,104.558,407.445z M210.519,360.324
			c-11.45-0.962-30.238-4.437-42.322-16.52c-12.087-12.088-15.56-30.886-16.521-42.321l44.29-14.763l29.316,29.316L210.519,360.324z
			 M306.083,311.985c-11.724,11.724-30.7,11.725-42.425,0l-63.64-63.64c-11.724-11.724-11.725-30.7,0-42.426
			c11.698-11.697,30.729-11.697,42.427,0c23.208,23.209,41.078,41.078,63.639,63.64
			C317.807,281.282,317.809,300.259,306.083,311.985z M337.903,216.526c-11.725,11.724-30.701,11.726-42.427,0
			c-11.724-11.724-11.725-30.7,0-42.426c11.695-11.695,30.728-11.699,42.426,0C349.6,185.796,349.6,204.829,337.903,216.526z
			 M390.936,184.706c-6.759-6.759-57.007-57.007-63.64-63.64l21.213-21.213l63.64,63.64L390.936,184.706z M443.969,110.46
			c-11.697,11.696-30.729,11.696-42.427,0c-11.697-11.697-11.697-30.729,0-42.426c11.695-11.695,30.728-11.699,42.426,0
			C455.666,79.73,455.666,98.762,443.969,110.46z"/>
	</g>
</g>
<g>
</g>
<g>
</g>
<g>
</g>
<g>
</g>
<g>
</g>
<g>
</g>
<g>
</g>
<g>
</g>
<g>
</g>
<g>
</g>
<g>
</g>
<g>
</g>
<g>
</g>
<g>
</g>
<g>
</g>
</svg>
